<svg width="1920" height="1080" viewBox="0 0 1920 1080" xmlns="http://www.w3.org/2000/svg"><rect width="1920" height="1080" fill="#15a2d7"/><path d="M 0,1080 C 0,1080 0,180 0,180 C 30.90418057219061,186.5497700978272 61.80836114438122,193.09954019565444 101,210 C 140.19163885561878,226.90045980434556 187.67073599466573,254.15160931520944 227,240 C 266.32926400533427,225.84839068479056 297.50869487695576,170.29402254350768 336,156 C 374.49130512304424,141.70597745649232 420.29448449751135,168.67230051075975 462,186 C 503.70551550248865,203.32769948924025 541.3133671329987,211.01677541345322 578,195 C 614.6866328670013,178.98322458654678 650.4520469704937,139.26059783542752 685,152 C 719.5479530295063,164.73940216457248 752.8784449850267,229.94083324483682 793,237 C 833.1215550149733,244.05916675516318 880.0341730893997,192.9760691852251 921,162 C 961.9658269106003,131.0239308147749 996.9848626573744,120.1548900142628 1035,149 C 1073.0151373426256,177.8451099857372 1114.026376281103,246.4043707577237 1143,234 C 1171.973623718897,221.5956292422763 1188.9096322182131,128.22762695484238 1221,115 C 1253.0903677817869,101.77237304515762 1300.335094846045,168.6851214229068 1339,190 C 1377.664905153955,211.3148785770932 1407.7499883976066,187.03188735353052 1449,175 C 1490.2500116023934,162.96811264646948 1542.664951563528,163.18732916297122 1585,162 C 1627.335048436472,160.81267083702878 1659.590205348281,158.21879599458467 1690,160 C 1720.409794651719,161.78120400541533 1748.974227043348,167.93748685869008 1787,172 C 1825.025772956652,176.06251314130992 1872.512886478326,178.03125657065496 1920,180 C 1920,180 1920,1080 1920,1080 Z" fill="#ffffff" opacity="0.09999999999999999"/><path d="M 0,1080 C 0,1080 0,360 0,360 C 31.732898410281834,358.2268663634436 63.46579682056367,356.4537327268872 104,353 C 144.53420317943633,349.5462672731128 193.86971112802718,344.4119354558948 236,351 C 278.1302888719728,357.5880645441052 313.0553586673277,375.89852544953374 348,385 C 382.9446413326723,394.10147455046626 417.9088542026621,393.9939627459703 458,367 C 498.0911457973379,340.0060372540297 543.3092245220237,286.1256235665851 575,297 C 606.6907754779763,307.8743764334149 624.8542477092432,383.50354298768946 665,399 C 705.1457522907568,414.49645701231054 767.2737846410035,369.86020448265697 806,360 C 844.7262153589965,350.13979551734303 860.050613726743,375.05563908168256 897,370 C 933.949386273257,364.94436091831744 992.5237604520246,329.91723919061286 1032,323 C 1071.4762395479754,316.08276080938714 1091.8543444651586,337.27540415586594 1123,335 C 1154.1456555348414,332.72459584413406 1196.0588616873404,306.98114418592326 1237,317 C 1277.9411383126596,327.01885581407674 1317.9102087854797,372.800019100441 1357,387 C 1396.0897912145203,401.199980899559 1434.3003031707415,383.8187794123128 1473,371 C 1511.6996968292585,358.1812205876872 1550.8885785315538,349.9248632503079 1590,356 C 1629.1114214684462,362.0751367496921 1668.1453827030434,382.4817675864556 1705,370 C 1741.8546172969566,357.5182324135444 1776.529890656273,312.1480664038698 1812,305 C 1847.470109343727,297.8519335961302 1883.7350546718635,328.92596679806513 1920,360 C 1920,360 1920,1080 1920,1080 Z" fill="#ffffff" opacity="0.19999999999999998"/><path d="M 0,1080 C 0,1080 0,540 0,540 C 36.59873271593936,547.4839430718175 73.19746543187873,554.9678861436349 105,534 C 136.80253456812127,513.0321138563651 163.80887098842447,463.6123984972777 205,473 C 246.19112901157553,482.3876015027223 301.5670506144234,550.5825198672541 344,589 C 386.4329493855766,627.4174801327459 415.92292655388206,636.0575220337059 447,605 C 478.07707344611794,573.9424779662941 510.74124317004873,503.18739199792225 547,500 C 583.2587568299513,496.81260800207775 623.112100765923,561.1929099746051 664,583 C 704.887899234077,604.8070900253949 746.8103537662597,584.0409681036575 793,554 C 839.1896462337403,523.9590318963425 889.6464841690379,484.64321761076496 923,474 C 956.3535158309621,463.35678238923504 972.6037095575884,481.38616145328274 1007,482 C 1041.3962904424116,482.61383854671726 1093.938677600608,465.8121365761041 1140,490 C 1186.061322399392,514.1878634238959 1225.6415800399798,579.3652922423013 1261,594 C 1296.3584199600202,608.6347077576987 1327.4950022394723,572.7266944546906 1359,551 C 1390.5049977605277,529.2733055453094 1422.3784110021304,521.7279299389365 1455,504 C 1487.6215889978696,486.27207006106346 1520.9913537520063,458.3615857895633 1564,475 C 1607.0086462479937,491.6384142104367 1659.6561739898445,552.82572690281 1704,551 C 1748.3438260101555,549.17427309719 1784.3839502886158,484.3355065991971 1819,472 C 1853.6160497113842,459.6644934008029 1886.808024855692,499.83224670040147 1920,540 C 1920,540 1920,1080 1920,1080 Z" fill="#ffffff" opacity="0.3"/><path d="M 0,1080 C 0,1080 0,720 0,720 C 24.128591527440136,709.7200389142583 48.25718305488027,699.4400778285168 93,716 C 137.74281694511973,732.5599221714832 203.09985930791902,775.9597276001914 241,761 C 278.900140692081,746.0402723998086 289.34337971344354,672.7210117707175 321,675 C 352.65662028655646,677.2789882292825 405.5266218383067,755.1562253169385 453,768 C 500.4733781616933,780.8437746830615 542.5501329333296,728.6540869615288 581,696 C 619.4498670666704,663.3459130384712 654.2728464283749,650.2274268369462 687,658 C 719.7271535716251,665.7725731630538 750.3584813531712,694.4362056906862 792,697 C 833.6415186468288,699.5637943093138 886.2932281589402,676.0277504003094 924,665 C 961.7067718410598,653.9722495996906 984.4686060110675,655.4527927080763 1021,682 C 1057.5313939889325,708.5472072919237 1107.83234779679,760.1610787673848 1142,765 C 1176.16765220321,769.8389212326152 1194.2020028017723,727.9028922223847 1230,695 C 1265.7979971982277,662.0971077776153 1319.3596409961203,638.2273523430767 1362,665 C 1404.6403590038797,691.7726476569233 1436.3594332137466,769.1876984053082 1466,784 C 1495.6405667862534,798.8123015946918 1523.2026261488925,751.0218540356906 1566,715 C 1608.7973738511075,678.9781459643094 1666.8300621906826,654.7248854519294 1704,661 C 1741.1699378093174,667.2751145480706 1757.4771250883764,704.0786041565915 1790,719 C 1822.5228749116236,733.9213958434085 1871.2614374558118,726.9606979217042 1920,720 C 1920,720 1920,1080 1920,1080 Z" fill="#ffffff" opacity="0.39999999999999997"/><path d="M 0,1080 C 0,1080 0,900 0,900 C 41.95967151024254,930.1410303862026 83.91934302048509,960.2820607724052 122,944 C 160.0806569795149,927.7179392275948 194.28229942830222,865.0127872965819 231,863 C 267.7177005716978,860.9872127034181 306.95145926630585,919.666790041267 348,949 C 389.04854073369415,978.333209958733 431.9118635064745,978.3200525383501 463,941 C 494.0881364935255,903.6799474616499 513.4010867077963,829.0529998053327 549,837 C 584.5989132922037,844.9470001946673 636.4837896623403,935.4679482403188 674,931 C 711.5162103376597,926.5320517596812 734.6637546428424,827.0752072333917 774,832 C 813.3362453571576,836.9247927666083 868.8611917662903,946.2312228261144 915,954 C 961.1388082337097,961.7687771738856 997.891478291996,867.9999014621509 1034,840 C 1070.108521708004,812.0000985378491 1105.5728950657253,849.7691713252822 1135,882 C 1164.4271049342747,914.2308286747178 1187.8169414451022,940.9234132367204 1226,925 C 1264.1830585548978,909.0765867632796 1317.159339153866,850.5371757278366 1364,832 C 1410.840660846134,813.4628242721634 1451.5457019394337,834.9278838519333 1485,870 C 1518.4542980605663,905.0721161480667 1544.657853088399,953.7512888644301 1581,963 C 1617.342146911601,972.2487111355699 1663.8228857069698,942.0669606903457 1699,912 C 1734.1771142930302,881.9330393096543 1758.0506040837229,851.9808683741869 1793,850 C 1827.9493959162771,848.0191316258131 1873.9746979581387,874.0095658129065 1920,900 C 1920,900 1920,1080 1920,1080 Z" fill="#ffffff" opacity="0.49999999999999994"/></svg>