<?xml version="1.0" encoding="UTF-8"?>
<svg width="3387" height="3387" viewBox="0 0 3386.9941 1449.1357" xmlns="http://www.w3.org/2000/svg">
 <defs>
  <filter id="d">
   <feGaussianBlur stdDeviation="5.13531"/>
  </filter>
  <filter id="c">
   <feGaussianBlur stdDeviation="4.94517"/>
  </filter>
  <filter id="l">
   <feGaussianBlur stdDeviation="5.09289"/>
  </filter>
  <filter id="k">
   <feGaussianBlur stdDeviation="4.87446"/>
  </filter>
  <filter id="j">
   <feGaussianBlur stdDeviation="5.10434"/>
  </filter>
  <filter id="i">
   <feGaussianBlur stdDeviation="5.18554"/>
  </filter>
  <linearGradient id="b" x1="289.39" x2="411.02" y1="-156.93" y2="121.27" gradientUnits="userSpaceOnUse">
   <stop stop-color="#b3defd" offset="0"/>
   <stop stop-color="#0197fd" offset=".25"/>
   <stop stop-color="#0197fd" offset=".5"/>
   <stop stop-color="#013397" offset="1"/>
  </linearGradient>
  <linearGradient id="a" x1="46.088" x2="118.86" y1="-41.615" y2="234.91" gradientUnits="userSpaceOnUse">
   <stop stop-color="#fb8b00" offset="0"/>
   <stop stop-color="#fd3301" offset=".25"/>
   <stop stop-color="#f44800" offset=".5"/>
   <stop stop-color="#d40000" offset="1"/>
  </linearGradient>
  <linearGradient id="h" x1="573.54" x2="728.34" y1="-343.42" y2="-49.037" gradientUnits="userSpaceOnUse">
   <stop stop-color="#ff9" offset="0"/>
   <stop stop-color="#fdca01" offset=".33954"/>
   <stop stop-color="#fdca01" offset=".65707"/>
   <stop stop-color="#986601" offset="1"/>
  </linearGradient>
  <linearGradient id="g" x1="784.18" x2="997.35" y1="-538.83" y2="-277.44" gradientUnits="userSpaceOnUse">
   <stop stop-color="#cf9" offset="0"/>
   <stop stop-color="#98fc66" offset=".25"/>
   <stop stop-color="#390" offset=".63869"/>
   <stop stop-color="#390" offset="1"/>
  </linearGradient>
  <linearGradient id="f" x1="1115.1" x2="1233.4" y1="-726.05" y2="-457.14" gradientUnits="userSpaceOnUse">
   <stop stop-color="#fcf" offset="0"/>
   <stop stop-color="#f0f" offset=".39437"/>
   <stop stop-color="#f0f" offset=".65537"/>
   <stop stop-color="#b06cc8" offset="1"/>
  </linearGradient>
  <linearGradient id="e" x1="1505.9" x2="1566.9" y1="-977.04" y2="-632.83" gradientUnits="userSpaceOnUse">
   <stop stop-color="#cccccf" offset="0"/>
   <stop stop-color="#aaa" offset=".33954"/>
   <stop stop-color="#666" offset=".65707"/>
   <stop stop-color="#333" offset="1"/>
  </linearGradient>
 </defs>
 <g transform="matrix(.92718 .37461 -.37461 .92718 985.59 422.15)">
  <path d="m321.7-75.686s5.0911 7.5937 7.9019 10.64c2.333 2.0443 1.7189 2.336-0.21582 3.8861-33.85 23.52-72.255 46.559-105.53 46.687-12.375 0.84555-11.431 31.489 10.717 28.327 40.129-5.0239 73.102-20.795 100.07-45.582 7.435-7.4894 9.5991-6.2654 14.009 0.82368l11.307 17.67c4.3829 6.99 3.8097 7.6239 1.1277 14.423l-30.133 76.389c-2.6042 6.0487-1.7585 10.781 0.46137 15.446l37.012 79.103c9.2489 18.909 38.196-0.55485 29.905-13.421l-35.973-68.23c-2.6087-5.2819-2.8924-8.6513-1.036-14.041l17.492-50.785c2.4085-7.8349 3.5826-4.1334 3.7143 1.0024l-1.0463 40.874c-0.59187 8.4216 3.616 16.048 7.2894 22.209l37.719 66.467c10.145 19.178 37.424 4.9749 32.868-9.3936l-38.332-64.836c-6.6809-10.327-7.6038-17.791-7.962-24.858-2.4156-17.996-3.6427-38.098-3.8036-54.927-0.52616-15.913 0.93013-15.999-7.4339-28.419l-11.792-17.51c-6.2284-9.1806-5.07-10.372 4.2233-12.364 40.393-5.5405 66.678-25.709 94.065-44.735 15.805-8.0398 1.3491-35.502-11.537-26.708-32.063 25.036-71.062 44.142-117.21 48.029-3.4846 0.17878-4.1128 0.27287-6.8761-2.0594l-9.7679-8.2444c22.905-27.548 7.8757-61.743-20.583-68.094-16.365-3.6516-35.619 4.2206-45.399 21.659-11.352 20.244-1.8084 67.61 44.74 60.572z" fill="#333" filter="url(#c)" opacity=".652"/>
  <path d="m318.9-91.581s5.0911 7.5937 7.9019 10.64c2.333 2.0443 1.7189 2.336-0.21582 3.8861-33.85 23.52-72.255 46.559-105.53 46.687-12.375 0.84555-11.431 31.489 10.717 28.327 40.129-5.0239 73.102-20.795 100.07-45.582 7.435-7.4894 9.5991-6.2654 14.009 0.82368l11.307 17.67c4.3829 6.99 3.8097 7.6239 1.1277 14.423l-30.133 76.389c-2.6042 6.0487-1.7585 10.781 0.46137 15.446l37.012 79.103c9.2489 18.909 38.196-0.55485 29.905-13.421l-35.973-68.23c-2.6087-5.2819-2.8924-8.6513-1.036-14.041l17.492-50.785c2.4085-7.8349 3.5826-4.1334 3.7143 1.0024l-1.0463 40.874c-0.59187 8.4216 3.616 16.048 7.2894 22.209l37.719 66.467c10.145 19.178 37.424 4.9749 32.868-9.3936l-38.332-64.836c-6.6809-10.327-7.6038-17.791-7.962-24.858-2.4156-17.996-3.6427-38.098-3.8036-54.927-0.52616-15.913 0.93013-15.999-7.4339-28.419l-11.792-17.51c-6.2284-9.1806-5.07-10.372 4.2233-12.364 40.393-5.5405 66.678-25.709 94.065-44.735 15.805-8.0398 1.3491-35.502-11.537-26.708-32.063 25.036-71.062 44.142-117.21 48.029-3.4846 0.17878-4.1128 0.27287-6.8761-2.0594l-9.7679-8.2444c22.905-27.548 7.8757-61.743-20.583-68.094-16.365-3.6516-35.619 4.2206-45.399 21.659-11.352 20.244-1.8084 67.61 44.74 60.572z" fill="url(#b)"/>
 </g>
 <g transform="matrix(.94243 .33441 -.33441 .94243 1595.6 397.87)">
  <path d="m82.92 16.639s1.8873 8.9455 2.1085 13.085c-0.16345 3.0976 0.47403 2.8612 2.9343 2.5569 40.468-7.8366 83.769-19.272 107.08-43.016 9.2403-8.2745 30.532 13.783 12.814 27.442-31.599 25.24-65.904 37.856-102.48 39.88-10.553 0.1002-11.186 2.5045-9.1845 10.61l4.7676 20.429c1.949 8.0169 2.803 8.0486 9.5446 10.871l75.746 31.716c6.15 2.355 8.9498 6.2628 10.743 11.108l30.839 81.708c7.092 19.819-27.049 26.974-30.48 12.057l-23.775-73.377c-1.9634-5.5541-4.179-8.1085-9.3354-10.54l-48.584-22.905c-4.4178-2.2665-6.5654 0.88613-7.1185 3.9632-0.20961 3.3598 0.78106 5.8912 1.6085 8.8116l32.966 116.35c6.1005 16.672-27.712 28.654-32.963 15.948l-36.491-136.8s-8.1641-13.327-11.225-27.984l-4.3151-20.664c-2.2305-10.867-3.8922-10.869-11.803-5.6016-32.153 25.069-64.941 29.825-97.68 36.168-16.787 5.7121-26.373-23.805-11.082-26.9 40.307-5.4984 81.204-20.103 116.19-50.447 2.5594-2.3714 3.0652-2.7558 3.3226-6.3625l0.90985-12.75c-35.716-2.8139-49.724-37.44-34.416-62.257 8.8027-14.27 27.877-22.571 47.193-17.408 22.423 5.9931 49.694 45.88 12.172 74.313z" fill="#333" filter="url(#d)" opacity=".65164" stroke="#000"/>
  <path d="m73.217 9.3618s1.8873 8.9455 2.1085 13.085c-0.16345 3.0976 0.47403 2.8612 2.9343 2.5569 40.468-7.8366 83.769-19.272 107.08-43.016 9.2403-8.2745 30.532 13.783 12.814 27.442-31.599 25.24-65.904 37.856-102.48 39.88-10.553 0.1002-11.186 2.5045-9.1845 10.61l4.7676 20.429c1.949 8.0169 2.803 8.0486 9.5446 10.871l75.746 31.716c6.15 2.355 8.9498 6.2628 10.743 11.108l30.839 81.708c7.092 19.819-27.049 26.974-30.48 12.057l-23.775-73.377c-1.9634-5.5541-4.179-8.1085-9.3354-10.54l-48.584-22.905c-4.4178-2.2665-6.5654 0.88613-7.1185 3.9632-0.2096 3.3598 0.78107 5.8912 1.6086 8.8116l32.966 116.35c6.1005 16.672-27.712 28.654-32.963 15.948l-36.491-136.8s-8.1641-13.327-11.225-27.984l-4.3151-20.664c-2.2305-10.867-3.8922-10.869-11.803-5.6016-32.153 25.069-64.941 29.825-97.68 36.168-16.787 5.7121-26.373-23.805-11.082-26.9 40.307-5.4984 81.204-20.103 116.19-50.447 2.5594-2.3714 3.0652-2.7558 3.3226-6.3625l0.90985-12.75c-35.716-2.8139-49.724-37.44-34.416-62.257 8.8027-14.27 27.877-22.571 47.193-17.408 22.423 5.9931 49.694 45.88 12.172 74.313z" fill="url(#a)"/>
 </g>
 <g transform="matrix(.83438 .55119 -.55119 .83438 1647 808.85)">
  <path d="m643.55-273.61s3.9547 8.2428 5.1511 12.212c0.57573 3.048 1.139 2.6672 3.4569 1.7882 37.455-17.209 76.809-38.586 93.821-67.18 7.0146-10.23 32.93 6.15 18.956 23.621-24.713 32.013-55.047 52.403-90.099 63.043-10.228 2.5997-10.273 5.0855-6.4067 12.485l9.4759 18.716c3.7944 7.3261 4.6316 7.1544 11.85 8.298l81.106 12.85c6.533 0.82952 10.18 3.9619 13.071 8.244l49.335 72.065c11.59 17.572-19.881 32.619-26.752 18.941l-40.497-65.646c-3.2244-4.9302-5.9826-6.8862-11.568-8.0252l-52.629-10.732c-4.8293-1.1543-6.168 2.4177-5.9757 5.5381 0.59309 3.3137 2.1558 5.538 3.6521 8.1789l59.614 105.21c9.8799 14.75-20.127 34.408-28.241 23.31l-67.889-124.25s-11.091-11.011-17.541-24.525l-9.0921-19.052c-4.7439-10.029-6.3585-9.636-12.795-2.6429-25.291 31.978-56.017 44.374-86.317 58.299-14.954 9.5299-31.265-16.873-17.145-23.505 37.853-14.899 74.121-38.786 100.91-76.559 1.9241-2.9107 2.3243-3.404 1.7191-6.9689l-2.1394-12.602c-35.364 5.7356-57.184-24.581-48.197-52.321 5.1677-15.951 21.73-28.537 41.719-28.102 23.204 0.50516 59.156 32.788 29.446 69.307z" fill="#333" filter="url(#l)" opacity=".652"/>
  <path d="m628.32-283.76s3.9547 8.2428 5.1511 12.212c0.57573 3.048 1.139 2.6672 3.4569 1.7882 37.455-17.209 76.809-38.586 93.821-67.18 7.0146-10.23 32.93 6.15 18.956 23.621-24.713 32.013-55.047 52.403-90.099 63.043-10.228 2.5997-10.273 5.0855-6.4067 12.485l9.4759 18.716c3.7944 7.3261 4.6316 7.1544 11.85 8.298l81.106 12.85c6.533 0.82952 10.18 3.9619 13.071 8.244l49.335 72.065c11.59 17.572-19.881 32.619-26.752 18.941l-40.497-65.646c-3.2244-4.9302-5.9826-6.8862-11.568-8.0252l-52.629-10.732c-4.8293-1.1543-6.168 2.4177-5.9757 5.5381 0.59309 3.3137 2.1558 5.538 3.6521 8.1789l59.614 105.21c9.8799 14.75-20.127 34.408-28.241 23.31l-67.889-124.25s-11.091-11.011-17.541-24.525l-9.0921-19.052c-4.7439-10.029-6.3585-9.636-12.795-2.6429-25.291 31.978-56.017 44.374-86.317 58.299-14.954 9.5299-31.265-16.873-17.145-23.505 37.853-14.899 74.121-38.786 100.91-76.559 1.9241-2.9107 2.3243-3.404 1.7191-6.9689l-2.1394-12.602c-35.364 5.7356-57.184-24.581-48.197-52.321 5.1677-15.951 21.73-28.537 41.719-28.102 23.204 0.50516 59.156 32.788 29.446 69.307z" fill="url(#h)"/>
 </g>
 <g transform="matrix(.73377 .67939 -.67939 .73377 1004.9 197.3)">
  <path d="m832.41-452.54s7.3314 5.4621 10.997 7.3974c2.881 1.1496 2.3993 1.6294 1.092 3.7357-24.073 33.46-52.601 67.984-83.926 79.196-11.385 4.9226-0.27945 33.498 19.548 23.134 36.158-18.114 61.988-43.976 79.152-76.336 4.5129-9.5395 6.9613-9.1071 13.482-3.8935l16.551 12.889c6.4624 5.129 6.1333 5.9177 5.8714 13.222l-2.9434 82.065c-0.43878 6.5708 1.9361 10.751 5.5844 14.409l61.266 62.239c15.024 14.744 35.827-13.257 23.72-22.622l-56.661-52.335c-4.2203-4.11-5.6111-7.1922-5.6577-12.893l-0.43909-53.711c-0.34124-8.1896 1.9997-5.0913 3.836-0.29321l12.64 38.884c2.2495 8.1372 8.7591 13.925 14.276 18.508l57.719 50.09c15.958 14.699 36.942-7.7858 27.856-19.813l-57.754-48.349c-9.7415-7.5091-13.1-14.238-15.794-20.782-8.2767-16.161-16.135-34.704-21.897-50.517-5.8011-14.828-4.4567-15.394-16.483-24.315l-16.954-12.577c-8.9327-6.5791-8.2377-8.0885-0.14002-13.064 36.235-18.689 54.293-46.467 73.771-73.535 12.221-12.849-10.564-33.921-19.781-21.334-21.882 34.293-52.281 65.307-94.49 84.355-3.2256 1.3302-3.7866 1.6283-7.1693 0.35067l-11.958-4.5164c12.411-33.608-13.158-60.837-42.106-57.336-16.646 2.0128-32.175 15.854-35.581 35.555-3.9543 22.87 20.834 64.346 62.374 42.191z" fill="#333" filter="url(#k)" opacity=".652"/>
  <path d="m827.33-462.69s7.3314 5.4621 10.997 7.3974c2.881 1.1496 2.3993 1.6294 1.092 3.7357-24.073 33.46-52.601 67.984-83.926 79.196-11.385 4.9226-0.27945 33.498 19.548 23.134 36.158-18.114 61.988-43.976 79.152-76.336 4.5129-9.5395 6.9613-9.1071 13.482-3.8935l16.551 12.889c6.4624 5.129 6.1333 5.9177 5.8714 13.222l-2.9434 82.065c-0.43878 6.5708 1.9361 10.751 5.5844 14.409l61.266 62.239c15.024 14.744 35.827-13.257 23.72-22.622l-56.661-52.335c-4.2203-4.11-5.6111-7.1922-5.6577-12.893l-0.43909-53.711c-0.34124-8.1896 1.9997-5.0913 3.836-0.29321l12.64 38.884c2.2495 8.1372 8.7591 13.925 14.276 18.508l57.719 50.09c15.958 14.699 36.942-7.7858 27.856-19.813l-57.754-48.349c-9.7415-7.5091-13.1-14.238-15.794-20.782-8.2767-16.161-16.135-34.704-21.897-50.517-5.8011-14.828-4.4567-15.394-16.483-24.315l-16.954-12.577c-8.9327-6.5791-8.2377-8.0885-0.14002-13.064 36.235-18.689 54.293-46.467 73.771-73.535 12.221-12.849-10.564-33.921-19.781-21.334-21.882 34.293-52.281 65.307-94.49 84.355-3.2256 1.3302-3.7866 1.6283-7.1693 0.35067l-11.958-4.5164c12.411-33.608-13.158-60.837-42.106-57.336-16.646 2.0128-32.175 15.854-35.581 35.555-3.9543 22.87 20.834 64.346 62.374 42.191z" fill="url(#g)"/>
 </g>
 <g transform="matrix(.96597 -.25865 .25865 .96597 -188.38 1585.3)">
  <path d="m1161.4-662.28s2.0775 8.9032 2.3868 13.037c-0.097 3.1004 0.535 2.8505 2.9882 2.4938 40.291-8.6974 83.339-21.053 106.13-45.289 9.0618-8.4696 30.819 13.129 13.396 27.163-31.054 25.908-65.082 39.252-101.6 42.055-10.548 0.32511-11.13 2.7423-8.9562 10.803l5.202 20.323c2.1194 7.9736 2.9739 7.987 9.7742 10.665l76.405 30.094c6.1988 2.2234 9.0813 6.0706 10.977 10.877l32.574 81.032c7.5128 19.664-26.468 27.545-30.216 12.704l-25.334-72.853c-2.0813-5.511-4.3509-8.0176-9.5579-10.338l-49.061-21.865c-4.4652-2.1718-6.5451 1.0259-7.0324 4.114-0.138 3.3636 0.9064 5.8732 1.796 8.7753l35.438 115.62c6.4545 16.538-27.095 29.238-32.615 16.647l-39.398-135.99s-8.4463-13.15-11.819-27.739l-4.7546-20.568c-2.4616-10.817-4.123-10.784-11.92-5.3487-31.611 25.748-64.291 31.203-96.887 38.242-16.662 6.0686-26.874-23.238-11.653-26.658 40.18-6.3563 80.757-21.83 115.08-52.912 2.5083-2.4254 3.0057-2.8205 3.1862-6.4319 0.2126-4.2554 0.6379-12.766 0.6379-12.766-35.768-2.052-50.511-36.372-35.735-61.51 8.4966-14.455 27.39-23.16 46.811-18.41 22.545 5.5138 50.66 44.81 13.753 74.037z" fill="#333" filter="url(#j)" opacity=".652"/>
  <path d="m1154.2-669.45s2.0775 8.9032 2.3868 13.037c-0.097 3.1004 0.535 2.8505 2.9882 2.4938 40.291-8.6974 83.339-21.053 106.13-45.289 9.0618-8.4696 30.819 13.129 13.396 27.163-31.054 25.908-65.082 39.252-101.6 42.055-10.548 0.32511-11.13 2.7423-8.9562 10.803l5.202 20.323c2.1194 7.9736 2.9739 7.987 9.7742 10.665l76.405 30.094c6.1988 2.2234 9.0813 6.0706 10.977 10.877l32.574 81.032c7.5128 19.664-26.468 27.545-30.216 12.704l-25.334-72.853c-2.0813-5.511-4.3509-8.0176-9.5579-10.338l-49.061-21.865c-4.4652-2.1718-6.5451 1.0259-7.0324 4.114-0.138 3.3636 0.9064 5.8732 1.796 8.7753l35.438 115.62c6.4545 16.538-27.095 29.238-32.615 16.647l-39.398-135.99s-8.4463-13.15-11.819-27.739l-4.7546-20.568c-2.4616-10.817-4.123-10.784-11.92-5.3487-31.611 25.748-64.291 31.203-96.887 38.242-16.662 6.0686-26.874-23.238-11.653-26.658 40.18-6.3563 80.757-21.83 115.08-52.912 2.5083-2.4254 3.0057-2.8205 3.1862-6.4319 0.2126-4.2554 0.6379-12.766 0.6379-12.766-35.768-2.052-50.511-36.372-35.735-61.51 8.4966-14.455 27.39-23.16 46.811-18.41 22.545 5.5138 50.66 44.81 13.753 74.037z" fill="url(#f)"/>
 </g>
 <g transform="matrix(.93982 .34166 -.34166 .93982 516.37 738.92)">
  <path d="m1526.8-853.08s2.8969 8.6713 4.8 12.354c1.7079 2.5894 1.0384 2.708-1.2379 3.69-38.872 13.71-82.01 25.749-114.13 17.056-12.156-2.4637-19.366 27.334 2.8281 30.154 40.026 5.7888 75.999-0.68145 108.57-17.436 9.1537-5.2515 10.916-3.4979 13.29 4.5062l6.221 20.034c2.3741 7.9015 1.6534 8.3608-2.7343 14.206l-49.298 65.674c-4.1139 5.1424-4.5523 9.9297-3.648 15.017l14.729 86.083c3.9076 20.684 36.978 9.5862 32.392-5.017l-16.608-75.323c-1.1159-5.7843-0.4967-9.1085 2.7216-13.814l30.323-44.334c4.3983-6.9167 4.5497-3.0364 3.3159 1.9508l-11.84 39.135c-2.8023 7.9637-0.7657 16.433 1.1441 23.346l18.758 74.086c4.7004 21.18 34.768 14.714 34.182-0.34873l-19.782-72.676c-3.7057-11.728-2.6178-19.169-1.0906-26.079 2.4392-17.993 6.5826-37.701 10.887-53.972 3.7093-15.484 5.1362-15.181 0.3621-29.373l-6.7305-20.008c-3.5732-10.503-2.1404-11.345 7.3485-10.803 40.417 5.3607 71.107-7.122 102.56-18.211 17.371-3.5644 10.708-33.876-4.0474-28.811-37.551 15.646-80.218 23.735-125.74 15.255-3.4074-0.751-4.0381-0.8267-6.0846-3.8078l-7.2342-10.538c29.386-20.494 23.955-57.449-1.8044-71.114-14.812-7.8573-35.465-5.3686-49.515 8.8555-16.311 16.512-19.659 64.714 27.091 70.261z" fill="#333" filter="url(#i)" opacity=".652"/>
  <path d="m1526.8-867.43s2.8969 8.6713 4.8 12.354c1.7079 2.5894 1.0384 2.708-1.2379 3.69-38.872 13.71-82.01 25.749-114.13 17.056-12.156-2.4637-19.366 27.334 2.8281 30.154 40.026 5.7888 75.999-0.68145 108.57-17.436 9.1537-5.2515 10.916-3.4979 13.29 4.5062l6.221 20.034c2.3741 7.9015 1.6534 8.3608-2.7343 14.206l-49.298 65.674c-4.1139 5.1424-4.5523 9.9297-3.648 15.017l14.729 86.083c3.9076 20.684 36.978 9.5862 32.392-5.017l-16.608-75.323c-1.1159-5.7843-0.4967-9.1085 2.7216-13.814l30.323-44.334c4.3983-6.9167 4.5497-3.0364 3.3159 1.9508l-11.84 39.135c-2.8023 7.9637-0.7657 16.433 1.1441 23.346l18.758 74.086c4.7004 21.18 34.768 14.714 34.182-0.34873l-19.782-72.676c-3.7057-11.728-2.6178-19.169-1.0906-26.079 2.4392-17.993 6.5826-37.701 10.887-53.972 3.7093-15.484 5.1362-15.181 0.3621-29.373l-6.7305-20.008c-3.5732-10.503-2.1404-11.345 7.3485-10.803 40.417 5.3607 71.107-7.122 102.56-18.211 17.371-3.5644 10.708-33.876-4.0474-28.811-37.551 15.646-80.218 23.735-125.74 15.255-3.4074-0.751-4.0381-0.8267-6.0846-3.8078l-7.2342-10.538c29.386-20.494 23.955-57.449-1.8044-71.114-14.812-7.8573-35.465-5.3686-49.515 8.8555-16.311 16.512-19.659 64.714 27.091 70.261z" fill="url(#e)"/>
 </g>
 <g transform="matrix(.77986 -.62595 .62595 .77986 473.18 899.99)">
  <path d="m82.92 16.639s1.8873 8.9455 2.1085 13.085c-0.16345 3.0976 0.47403 2.8612 2.9343 2.5569 40.468-7.8366 83.769-19.272 107.08-43.016 9.2403-8.2745 30.532 13.783 12.814 27.442-31.599 25.24-65.904 37.856-102.48 39.88-10.553 0.1002-11.186 2.5045-9.1845 10.61l4.7676 20.429c1.949 8.0169 2.803 8.0486 9.5446 10.871l75.746 31.716c6.15 2.355 8.9498 6.2628 10.743 11.108l30.839 81.708c7.092 19.819-27.049 26.974-30.48 12.057l-23.775-73.377c-1.9634-5.5541-4.179-8.1085-9.3354-10.54l-48.584-22.905c-4.4178-2.2665-6.5654 0.88613-7.1185 3.9632-0.20961 3.3598 0.78106 5.8912 1.6085 8.8116l32.966 116.35c6.1005 16.672-27.712 28.654-32.963 15.948l-36.491-136.8s-8.1641-13.327-11.225-27.984l-4.3151-20.664c-2.2305-10.867-3.8922-10.869-11.803-5.6016-32.153 25.069-64.941 29.825-97.68 36.168-16.787 5.7121-26.373-23.805-11.082-26.9 40.307-5.4984 81.204-20.103 116.19-50.447 2.5594-2.3714 3.0652-2.7558 3.3226-6.3625l0.90985-12.75c-35.716-2.8139-49.724-37.44-34.416-62.257 8.8027-14.27 27.877-22.571 47.193-17.408 22.423 5.9931 49.694 45.88 12.172 74.313z" fill="#333" filter="url(#d)" opacity=".65164" stroke="#000"/>
  <path d="m73.217 9.3618s1.8873 8.9455 2.1085 13.085c-0.16345 3.0976 0.47403 2.8612 2.9343 2.5569 40.468-7.8366 83.769-19.272 107.08-43.016 9.2403-8.2745 30.532 13.783 12.814 27.442-31.599 25.24-65.904 37.856-102.48 39.88-10.553 0.1002-11.186 2.5045-9.1845 10.61l4.7676 20.429c1.949 8.0169 2.803 8.0486 9.5446 10.871l75.746 31.716c6.15 2.355 8.9498 6.2628 10.743 11.108l30.839 81.708c7.092 19.819-27.049 26.974-30.48 12.057l-23.775-73.377c-1.9634-5.5541-4.179-8.1085-9.3354-10.54l-48.584-22.905c-4.4178-2.2665-6.5654 0.88613-7.1185 3.9632-0.2096 3.3598 0.78107 5.8912 1.6086 8.8116l32.966 116.35c6.1005 16.672-27.712 28.654-32.963 15.948l-36.491-136.8s-8.1641-13.327-11.225-27.984l-4.3151-20.664c-2.2305-10.867-3.8922-10.869-11.803-5.6016-32.153 25.069-64.941 29.825-97.68 36.168-16.787 5.7121-26.373-23.805-11.082-26.9 40.307-5.4984 81.204-20.103 116.19-50.447 2.5594-2.3714 3.0652-2.7558 3.3226-6.3625l0.90985-12.75c-35.716-2.8139-49.724-37.44-34.416-62.257 8.8027-14.27 27.877-22.571 47.193-17.408 22.423 5.9931 49.694 45.88 12.172 74.313z" fill="url(#a)"/>
 </g>
 <g transform="matrix(.47712 .87884 -.87884 .47712 2562.6 473.37)">
  <path d="m321.7-75.686s5.0911 7.5937 7.9019 10.64c2.333 2.0443 1.7189 2.336-0.21582 3.8861-33.85 23.52-72.255 46.559-105.53 46.687-12.375 0.84555-11.431 31.489 10.717 28.327 40.129-5.0239 73.102-20.795 100.07-45.582 7.435-7.4894 9.5991-6.2654 14.009 0.82368l11.307 17.67c4.3829 6.99 3.8097 7.6239 1.1277 14.423l-30.133 76.389c-2.6042 6.0487-1.7585 10.781 0.46137 15.446l37.012 79.103c9.2489 18.909 38.196-0.55485 29.905-13.421l-35.973-68.23c-2.6087-5.2819-2.8924-8.6513-1.036-14.041l17.492-50.785c2.4085-7.8349 3.5826-4.1334 3.7143 1.0024l-1.0463 40.874c-0.59187 8.4216 3.616 16.048 7.2894 22.209l37.719 66.467c10.145 19.178 37.424 4.9749 32.868-9.3936l-38.332-64.836c-6.6809-10.327-7.6038-17.791-7.962-24.858-2.4156-17.996-3.6427-38.098-3.8036-54.927-0.52616-15.913 0.93013-15.999-7.4339-28.419l-11.792-17.51c-6.2284-9.1806-5.07-10.372 4.2233-12.364 40.393-5.5405 66.678-25.709 94.065-44.735 15.805-8.0398 1.3491-35.502-11.537-26.708-32.063 25.036-71.062 44.142-117.21 48.029-3.4846 0.17878-4.1128 0.27287-6.8761-2.0594l-9.7679-8.2444c22.905-27.548 7.8757-61.743-20.583-68.094-16.365-3.6516-35.619 4.2206-45.399 21.659-11.352 20.244-1.8084 67.61 44.74 60.572z" fill="#333" filter="url(#c)" opacity=".652"/>
  <path d="m318.9-91.581s5.0911 7.5937 7.9019 10.64c2.333 2.0443 1.7189 2.336-0.21582 3.8861-33.85 23.52-72.255 46.559-105.53 46.687-12.375 0.84555-11.431 31.489 10.717 28.327 40.129-5.0239 73.102-20.795 100.07-45.582 7.435-7.4894 9.5991-6.2654 14.009 0.82368l11.307 17.67c4.3829 6.99 3.8097 7.6239 1.1277 14.423l-30.133 76.389c-2.6042 6.0487-1.7585 10.781 0.46137 15.446l37.012 79.103c9.2489 18.909 38.196-0.55485 29.905-13.421l-35.973-68.23c-2.6087-5.2819-2.8924-8.6513-1.036-14.041l17.492-50.785c2.4085-7.8349 3.5826-4.1334 3.7143 1.0024l-1.0463 40.874c-0.59187 8.4216 3.616 16.048 7.2894 22.209l37.719 66.467c10.145 19.178 37.424 4.9749 32.868-9.3936l-38.332-64.836c-6.6809-10.327-7.6038-17.791-7.962-24.858-2.4156-17.996-3.6427-38.098-3.8036-54.927-0.52616-15.913 0.93013-15.999-7.4339-28.419l-11.792-17.51c-6.2284-9.1806-5.07-10.372 4.2233-12.364 40.393-5.5405 66.678-25.709 94.065-44.735 15.805-8.0398 1.3491-35.502-11.537-26.708-32.063 25.036-71.062 44.142-117.21 48.029-3.4846 0.17878-4.1128 0.27287-6.8761-2.0594l-9.7679-8.2444c22.905-27.548 7.8757-61.743-20.583-68.094-16.365-3.6516-35.619 4.2206-45.399 21.659-11.352 20.244-1.8084 67.61 44.74 60.572z" fill="url(#b)"/>
 </g>
 <g transform="matrix(.94412 .32959 -.32959 .94412 355.26 561)">
  <path d="m643.55-273.61s3.9547 8.2428 5.1511 12.212c0.57573 3.048 1.139 2.6672 3.4569 1.7882 37.455-17.209 76.809-38.586 93.821-67.18 7.0146-10.23 32.93 6.15 18.956 23.621-24.713 32.013-55.047 52.403-90.099 63.043-10.228 2.5997-10.273 5.0855-6.4067 12.485l9.4759 18.716c3.7944 7.3261 4.6316 7.1544 11.85 8.298l81.106 12.85c6.533 0.82952 10.18 3.9619 13.071 8.244l49.335 72.065c11.59 17.572-19.881 32.619-26.752 18.941l-40.497-65.646c-3.2244-4.9302-5.9826-6.8862-11.568-8.0252l-52.629-10.732c-4.8293-1.1543-6.168 2.4177-5.9757 5.5381 0.59309 3.3137 2.1558 5.538 3.6521 8.1789l59.614 105.21c9.8799 14.75-20.127 34.408-28.241 23.31l-67.889-124.25s-11.091-11.011-17.541-24.525l-9.0921-19.052c-4.7439-10.029-6.3585-9.636-12.795-2.6429-25.291 31.978-56.017 44.374-86.317 58.299-14.954 9.5299-31.265-16.873-17.145-23.505 37.853-14.899 74.121-38.786 100.91-76.559 1.9241-2.9107 2.3243-3.404 1.7191-6.9689l-2.1394-12.602c-35.364 5.7356-57.184-24.581-48.197-52.321 5.1677-15.951 21.73-28.537 41.719-28.102 23.204 0.50516 59.156 32.788 29.446 69.307z" fill="#333" filter="url(#l)" opacity=".652"/>
  <path d="m628.32-283.76s3.9547 8.2428 5.1511 12.212c0.57573 3.048 1.139 2.6672 3.4569 1.7882 37.455-17.209 76.809-38.586 93.821-67.18 7.0146-10.23 32.93 6.15 18.956 23.621-24.713 32.013-55.047 52.403-90.099 63.043-10.228 2.5997-10.273 5.0855-6.4067 12.485l9.4759 18.716c3.7944 7.3261 4.6316 7.1544 11.85 8.298l81.106 12.85c6.533 0.82952 10.18 3.9619 13.071 8.244l49.335 72.065c11.59 17.572-19.881 32.619-26.752 18.941l-40.497-65.646c-3.2244-4.9302-5.9826-6.8862-11.568-8.0252l-52.629-10.732c-4.8293-1.1543-6.168 2.4177-5.9757 5.5381 0.59309 3.3137 2.1558 5.538 3.6521 8.1789l59.614 105.21c9.8799 14.75-20.127 34.408-28.241 23.31l-67.889-124.25s-11.091-11.011-17.541-24.525l-9.0921-19.052c-4.7439-10.029-6.3585-9.636-12.795-2.6429-25.291 31.978-56.017 44.374-86.317 58.299-14.954 9.5299-31.265-16.873-17.145-23.505 37.853-14.899 74.121-38.786 100.91-76.559 1.9241-2.9107 2.3243-3.404 1.7191-6.9689l-2.1394-12.602c-35.364 5.7356-57.184-24.581-48.197-52.321 5.1677-15.951 21.73-28.537 41.719-28.102 23.204 0.50516 59.156 32.788 29.446 69.307z" fill="url(#h)"/>
 </g>
 <g transform="matrix(.90791 .41916 -.41916 .90791 -214.81 1077.6)">
  <path d="m1161.4-662.28s2.0775 8.9032 2.3868 13.037c-0.097 3.1004 0.535 2.8505 2.9882 2.4938 40.291-8.6974 83.339-21.053 106.13-45.289 9.0618-8.4696 30.819 13.129 13.396 27.163-31.054 25.908-65.082 39.252-101.6 42.055-10.548 0.32511-11.13 2.7423-8.9562 10.803l5.202 20.323c2.1194 7.9736 2.9739 7.987 9.7742 10.665l76.405 30.094c6.1988 2.2234 9.0813 6.0706 10.977 10.877l32.574 81.032c7.5128 19.664-26.468 27.545-30.216 12.704l-25.334-72.853c-2.0813-5.511-4.3509-8.0176-9.5579-10.338l-49.061-21.865c-4.4652-2.1718-6.5451 1.0259-7.0324 4.114-0.138 3.3636 0.9064 5.8732 1.796 8.7753l35.438 115.62c6.4545 16.538-27.095 29.238-32.615 16.647l-39.398-135.99s-8.4463-13.15-11.819-27.739l-4.7546-20.568c-2.4616-10.817-4.123-10.784-11.92-5.3487-31.611 25.748-64.291 31.203-96.887 38.242-16.662 6.0686-26.874-23.238-11.653-26.658 40.18-6.3563 80.757-21.83 115.08-52.912 2.5083-2.4254 3.0057-2.8205 3.1862-6.4319 0.2126-4.2554 0.6379-12.766 0.6379-12.766-35.768-2.052-50.511-36.372-35.735-61.51 8.4966-14.455 27.39-23.16 46.811-18.41 22.545 5.5138 50.66 44.81 13.753 74.037z" fill="#333" filter="url(#j)" opacity=".652"/>
  <path d="m1154.2-669.45s2.0775 8.9032 2.3868 13.037c-0.097 3.1004 0.535 2.8505 2.9882 2.4938 40.291-8.6974 83.339-21.053 106.13-45.289 9.0618-8.4696 30.819 13.129 13.396 27.163-31.054 25.908-65.082 39.252-101.6 42.055-10.548 0.32511-11.13 2.7423-8.9562 10.803l5.202 20.323c2.1194 7.9736 2.9739 7.987 9.7742 10.665l76.405 30.094c6.1988 2.2234 9.0813 6.0706 10.977 10.877l32.574 81.032c7.5128 19.664-26.468 27.545-30.216 12.704l-25.334-72.853c-2.0813-5.511-4.3509-8.0176-9.5579-10.338l-49.061-21.865c-4.4652-2.1718-6.5451 1.0259-7.0324 4.114-0.138 3.3636 0.9064 5.8732 1.796 8.7753l35.438 115.62c6.4545 16.538-27.095 29.238-32.615 16.647l-39.398-135.99s-8.4463-13.15-11.819-27.739l-4.7546-20.568c-2.4616-10.817-4.123-10.784-11.92-5.3487-31.611 25.748-64.291 31.203-96.887 38.242-16.662 6.0686-26.874-23.238-11.653-26.658 40.18-6.3563 80.757-21.83 115.08-52.912 2.5083-2.4254 3.0057-2.8205 3.1862-6.4319 0.2126-4.2554 0.6379-12.766 0.6379-12.766-35.768-2.052-50.511-36.372-35.735-61.51 8.4966-14.455 27.39-23.16 46.811-18.41 22.545 5.5138 50.66 44.81 13.753 74.037z" fill="url(#f)"/>
 </g>
 <g transform="translate(145.45 1787.1)">
  <path d="m1526.8-853.08s2.8969 8.6713 4.8 12.354c1.7079 2.5894 1.0384 2.708-1.2379 3.69-38.872 13.71-82.01 25.749-114.13 17.056-12.156-2.4637-19.366 27.334 2.8281 30.154 40.026 5.7888 75.999-0.68145 108.57-17.436 9.1537-5.2515 10.916-3.4979 13.29 4.5062l6.221 20.034c2.3741 7.9015 1.6534 8.3608-2.7343 14.206l-49.298 65.674c-4.1139 5.1424-4.5523 9.9297-3.648 15.017l14.729 86.083c3.9076 20.684 36.978 9.5862 32.392-5.017l-16.608-75.323c-1.1159-5.7843-0.4967-9.1085 2.7216-13.814l30.323-44.334c4.3983-6.9167 4.5497-3.0364 3.3159 1.9508l-11.84 39.135c-2.8023 7.9637-0.7657 16.433 1.1441 23.346l18.758 74.086c4.7004 21.18 34.768 14.714 34.182-0.34873l-19.782-72.676c-3.7057-11.728-2.6178-19.169-1.0906-26.079 2.4392-17.993 6.5826-37.701 10.887-53.972 3.7093-15.484 5.1362-15.181 0.3621-29.373l-6.7305-20.008c-3.5732-10.503-2.1404-11.345 7.3485-10.803 40.417 5.3607 71.107-7.122 102.56-18.211 17.371-3.5644 10.708-33.876-4.0474-28.811-37.551 15.646-80.218 23.735-125.74 15.255-3.4074-0.751-4.0381-0.8267-6.0846-3.8078l-7.2342-10.538c29.386-20.494 23.955-57.449-1.8044-71.114-14.812-7.8573-35.465-5.3686-49.515 8.8555-16.311 16.512-19.659 64.714 27.091 70.261z" fill="#333" filter="url(#i)" opacity=".652"/>
  <path d="m1526.8-867.43s2.8969 8.6713 4.8 12.354c1.7079 2.5894 1.0384 2.708-1.2379 3.69-38.872 13.71-82.01 25.749-114.13 17.056-12.156-2.4637-19.366 27.334 2.8281 30.154 40.026 5.7888 75.999-0.68145 108.57-17.436 9.1537-5.2515 10.916-3.4979 13.29 4.5062l6.221 20.034c2.3741 7.9015 1.6534 8.3608-2.7343 14.206l-49.298 65.674c-4.1139 5.1424-4.5523 9.9297-3.648 15.017l14.729 86.083c3.9076 20.684 36.978 9.5862 32.392-5.017l-16.608-75.323c-1.1159-5.7843-0.4967-9.1085 2.7216-13.814l30.323-44.334c4.3983-6.9167 4.5497-3.0364 3.3159 1.9508l-11.84 39.135c-2.8023 7.9637-0.7657 16.433 1.1441 23.346l18.758 74.086c4.7004 21.18 34.768 14.714 34.182-0.34873l-19.782-72.676c-3.7057-11.728-2.6178-19.169-1.0906-26.079 2.4392-17.993 6.5826-37.701 10.887-53.972 3.7093-15.484 5.1362-15.181 0.3621-29.373l-6.7305-20.008c-3.5732-10.503-2.1404-11.345 7.3485-10.803 40.417 5.3607 71.107-7.122 102.56-18.211 17.371-3.5644 10.708-33.876-4.0474-28.811-37.551 15.646-80.218 23.735-125.74 15.255-3.4074-0.751-4.0381-0.8267-6.0846-3.8078l-7.2342-10.538c29.386-20.494 23.955-57.449-1.8044-71.114-14.812-7.8573-35.465-5.3686-49.515 8.8555-16.311 16.512-19.659 64.714 27.091 70.261z" fill="url(#e)"/>
 </g>
 <g transform="matrix(-.92718 .37461 .37461 .92718 2362.4 877.92)">
  <path d="m321.7-75.686s5.0911 7.5937 7.9019 10.64c2.333 2.0443 1.7189 2.336-0.21582 3.8861-33.85 23.52-72.255 46.559-105.53 46.687-12.375 0.84555-11.431 31.489 10.717 28.327 40.129-5.0239 73.102-20.795 100.07-45.582 7.435-7.4894 9.5991-6.2654 14.009 0.82368l11.307 17.67c4.3829 6.99 3.8097 7.6239 1.1277 14.423l-30.133 76.389c-2.6042 6.0487-1.7585 10.781 0.46137 15.446l37.012 79.103c9.2489 18.909 38.196-0.55485 29.905-13.421l-35.973-68.23c-2.6087-5.2819-2.8924-8.6513-1.036-14.041l17.492-50.785c2.4085-7.8349 3.5826-4.1334 3.7143 1.0024l-1.0463 40.874c-0.59187 8.4216 3.616 16.048 7.2894 22.209l37.719 66.467c10.145 19.178 37.424 4.9749 32.868-9.3936l-38.332-64.836c-6.6809-10.327-7.6038-17.791-7.962-24.858-2.4156-17.996-3.6427-38.098-3.8036-54.927-0.52616-15.913 0.93013-15.999-7.4339-28.419l-11.792-17.51c-6.2284-9.1806-5.07-10.372 4.2233-12.364 40.393-5.5405 66.678-25.709 94.065-44.735 15.805-8.0398 1.3491-35.502-11.537-26.708-32.063 25.036-71.062 44.142-117.21 48.029-3.4846 0.17878-4.1128 0.27287-6.8761-2.0594l-9.7679-8.2444c22.905-27.548 7.8757-61.743-20.583-68.094-16.365-3.6516-35.619 4.2206-45.399 21.659-11.352 20.244-1.8084 67.61 44.74 60.572z" fill="#333" filter="url(#c)" opacity=".652"/>
  <path d="m318.9-91.581s5.0911 7.5937 7.9019 10.64c2.333 2.0443 1.7189 2.336-0.21582 3.8861-33.85 23.52-72.255 46.559-105.53 46.687-12.375 0.84555-11.431 31.489 10.717 28.327 40.129-5.0239 73.102-20.795 100.07-45.582 7.435-7.4894 9.5991-6.2654 14.009 0.82368l11.307 17.67c4.3829 6.99 3.8097 7.6239 1.1277 14.423l-30.133 76.389c-2.6042 6.0487-1.7585 10.781 0.46137 15.446l37.012 79.103c9.2489 18.909 38.196-0.55485 29.905-13.421l-35.973-68.23c-2.6087-5.2819-2.8924-8.6513-1.036-14.041l17.492-50.785c2.4085-7.8349 3.5826-4.1334 3.7143 1.0024l-1.0463 40.874c-0.59187 8.4216 3.616 16.048 7.2894 22.209l37.719 66.467c10.145 19.178 37.424 4.9749 32.868-9.3936l-38.332-64.836c-6.6809-10.327-7.6038-17.791-7.962-24.858-2.4156-17.996-3.6427-38.098-3.8036-54.927-0.52616-15.913 0.93013-15.999-7.4339-28.419l-11.792-17.51c-6.2284-9.1806-5.07-10.372 4.2233-12.364 40.393-5.5405 66.678-25.709 94.065-44.735 15.805-8.0398 1.3491-35.502-11.537-26.708-32.063 25.036-71.062 44.142-117.21 48.029-3.4846 0.17878-4.1128 0.27287-6.8761-2.0594l-9.7679-8.2444c22.905-27.548 7.8757-61.743-20.583-68.094-16.365-3.6516-35.619 4.2206-45.399 21.659-11.352 20.244-1.8084 67.61 44.74 60.572z" fill="url(#b)"/>
 </g>
 <g transform="matrix(.74349 .66875 -.66875 .74349 448.3 734.03)">
  <path d="m832.41-452.54s7.3314 5.4621 10.997 7.3974c2.881 1.1496 2.3993 1.6294 1.092 3.7357-24.073 33.46-52.601 67.984-83.926 79.196-11.385 4.9226-0.27945 33.498 19.548 23.134 36.158-18.114 61.988-43.976 79.152-76.336 4.5129-9.5395 6.9613-9.1071 13.482-3.8935l16.551 12.889c6.4624 5.129 6.1333 5.9177 5.8714 13.222l-2.9434 82.065c-0.43878 6.5708 1.9361 10.751 5.5844 14.409l61.266 62.239c15.024 14.744 35.827-13.257 23.72-22.622l-56.661-52.335c-4.2203-4.11-5.6111-7.1922-5.6577-12.893l-0.43909-53.711c-0.34124-8.1896 1.9997-5.0913 3.836-0.29321l12.64 38.884c2.2495 8.1372 8.7591 13.925 14.276 18.508l57.719 50.09c15.958 14.699 36.942-7.7858 27.856-19.813l-57.754-48.349c-9.7415-7.5091-13.1-14.238-15.794-20.782-8.2767-16.161-16.135-34.704-21.897-50.517-5.8011-14.828-4.4567-15.394-16.483-24.315l-16.954-12.577c-8.9327-6.5791-8.2377-8.0885-0.14002-13.064 36.235-18.689 54.293-46.467 73.771-73.535 12.221-12.849-10.564-33.921-19.781-21.334-21.882 34.293-52.281 65.307-94.49 84.355-3.2256 1.3302-3.7866 1.6283-7.1693 0.35067l-11.958-4.5164c12.411-33.608-13.158-60.837-42.106-57.336-16.646 2.0128-32.175 15.854-35.581 35.555-3.9543 22.87 20.834 64.346 62.374 42.191z" fill="#333" filter="url(#k)" opacity=".652"/>
  <path d="m827.33-462.69s7.3314 5.4621 10.997 7.3974c2.881 1.1496 2.3993 1.6294 1.092 3.7357-24.073 33.46-52.601 67.984-83.926 79.196-11.385 4.9226-0.27945 33.498 19.548 23.134 36.158-18.114 61.988-43.976 79.152-76.336 4.5129-9.5395 6.9613-9.1071 13.482-3.8935l16.551 12.889c6.4624 5.129 6.1333 5.9177 5.8714 13.222l-2.9434 82.065c-0.43878 6.5708 1.9361 10.751 5.5844 14.409l61.266 62.239c15.024 14.744 35.827-13.257 23.72-22.622l-56.661-52.335c-4.2203-4.11-5.6111-7.1922-5.6577-12.893l-0.43909-53.711c-0.34124-8.1896 1.9997-5.0913 3.836-0.29321l12.64 38.884c2.2495 8.1372 8.7591 13.925 14.276 18.508l57.719 50.09c15.958 14.699 36.942-7.7858 27.856-19.813l-57.754-48.349c-9.7415-7.5091-13.1-14.238-15.794-20.782-8.2767-16.161-16.135-34.704-21.897-50.517-5.8011-14.828-4.4567-15.394-16.483-24.315l-16.954-12.577c-8.9327-6.5791-8.2377-8.0885-0.14002-13.064 36.235-18.689 54.293-46.467 73.771-73.535 12.221-12.849-10.564-33.921-19.781-21.334-21.882 34.293-52.281 65.307-94.49 84.355-3.2256 1.3302-3.7866 1.6283-7.1693 0.35067l-11.958-4.5164c12.411-33.608-13.158-60.837-42.106-57.336-16.646 2.0128-32.175 15.854-35.581 35.555-3.9543 22.87 20.834 64.346 62.374 42.191z" fill="url(#g)"/>
 </g>
 <g transform="matrix(-.98687 -.16149 -.16149 .98687 2611.6 543.52)">
  <path d="m82.92 16.639s1.8873 8.9455 2.1085 13.085c-0.16345 3.0976 0.47403 2.8612 2.9343 2.5569 40.468-7.8366 83.769-19.272 107.08-43.016 9.2403-8.2745 30.532 13.783 12.814 27.442-31.599 25.24-65.904 37.856-102.48 39.88-10.553 0.1002-11.186 2.5045-9.1845 10.61l4.7676 20.429c1.949 8.0169 2.803 8.0486 9.5446 10.871l75.746 31.716c6.15 2.355 8.9498 6.2628 10.743 11.108l30.839 81.708c7.092 19.819-27.049 26.974-30.48 12.057l-23.775-73.377c-1.9634-5.5541-4.179-8.1085-9.3354-10.54l-48.584-22.905c-4.4178-2.2665-6.5654 0.88613-7.1185 3.9632-0.20961 3.3598 0.78106 5.8912 1.6085 8.8116l32.966 116.35c6.1005 16.672-27.712 28.654-32.963 15.948l-36.491-136.8s-8.1641-13.327-11.225-27.984l-4.3151-20.664c-2.2305-10.867-3.8922-10.869-11.803-5.6016-32.153 25.069-64.941 29.825-97.68 36.168-16.787 5.7121-26.373-23.805-11.082-26.9 40.307-5.4984 81.204-20.103 116.19-50.447 2.5594-2.3714 3.0652-2.7558 3.3226-6.3625l0.90985-12.75c-35.716-2.8139-49.724-37.44-34.416-62.257 8.8027-14.27 27.877-22.571 47.193-17.408 22.423 5.9931 49.694 45.88 12.172 74.313z" fill="#333" filter="url(#d)" opacity=".65164" stroke="#000"/>
  <path d="m73.217 9.3618s1.8873 8.9455 2.1085 13.085c-0.16345 3.0976 0.47403 2.8612 2.9343 2.5569 40.468-7.8366 83.769-19.272 107.08-43.016 9.2403-8.2745 30.532 13.783 12.814 27.442-31.599 25.24-65.904 37.856-102.48 39.88-10.553 0.1002-11.186 2.5045-9.1845 10.61l4.7676 20.429c1.949 8.0169 2.803 8.0486 9.5446 10.871l75.746 31.716c6.15 2.355 8.9498 6.2628 10.743 11.108l30.839 81.708c7.092 19.819-27.049 26.974-30.48 12.057l-23.775-73.377c-1.9634-5.5541-4.179-8.1085-9.3354-10.54l-48.584-22.905c-4.4178-2.2665-6.5654 0.88613-7.1185 3.9632-0.2096 3.3598 0.78107 5.8912 1.6086 8.8116l32.966 116.35c6.1005 16.672-27.712 28.654-32.963 15.948l-36.491-136.8s-8.1641-13.327-11.225-27.984l-4.3151-20.664c-2.2305-10.867-3.8922-10.869-11.803-5.6016-32.153 25.069-64.941 29.825-97.68 36.168-16.787 5.7121-26.373-23.805-11.082-26.9 40.307-5.4984 81.204-20.103 116.19-50.447 2.5594-2.3714 3.0652-2.7558 3.3226-6.3625l0.90985-12.75c-35.716-2.8139-49.724-37.44-34.416-62.257 8.8027-14.27 27.877-22.571 47.193-17.408 22.423 5.9931 49.694 45.88 12.172 74.313z" fill="url(#a)"/>
 </g>
</svg>
